<svg width="18" height="21" viewBox="0 0 18 21" fill="none" xmlns="http://www.w3.org/2000/svg">
<path d="M9 0.380859C7.04686 0.380859 5.17371 1.15674 3.79263 2.53782C2.41156 3.9189 1.63567 5.79205 1.63567 7.74519V11.6745L0.0580706 15.625C0.00865911 15.7491 -0.00963531 15.8834 0.0047839 16.0161C0.0192031 16.1489 0.0658977 16.2761 0.140792 16.3867C0.215687 16.4972 0.316505 16.5878 0.434447 16.6504C0.552389 16.7131 0.68387 16.7459 0.817415 16.746H5.72697C5.72697 18.5593 7.18674 20.0191 9 20.0191C10.8133 20.0191 12.273 18.5593 12.273 16.746H17.1826C17.3161 16.7459 17.4476 16.7131 17.5656 16.6504C17.6835 16.5878 17.7843 16.4972 17.8592 16.3867C17.9341 16.2761 17.9808 16.1489 17.9952 16.0161C18.0096 15.8834 17.9913 15.7491 17.9419 15.625L16.3643 11.6728V7.74519C16.3643 5.79205 15.5884 3.9189 14.2074 2.53782C12.8263 1.15674 10.9531 0.380859 9 0.380859ZM10.6365 16.746C10.6365 17.6559 9.9099 18.3825 9 18.3825C8.0901 18.3825 7.36348 17.6559 7.36348 16.746H10.6365ZM3.27219 7.74519C3.27219 6.22608 3.87565 4.76919 4.94983 3.69501C6.024 2.62084 7.48089 2.01738 9 2.01738C10.5191 2.01738 11.976 2.62084 13.0502 3.69501C14.1243 4.76919 14.7278 6.22608 14.7278 7.74519V11.8332C14.7281 11.9369 14.7481 12.0397 14.7867 12.136L15.9748 15.1095H2.02516L3.21328 12.136C3.25193 12.0397 3.27192 11.9369 3.27219 11.8332V7.74519Z" fill="#00095A"/>
</svg>
