<svg width="19" height="21" viewBox="0 0 19 21" fill="none" xmlns="http://www.w3.org/2000/svg">
<path d="M9.5 0.380859C7.54686 0.380859 5.67371 1.15674 4.29263 2.53782C2.91156 3.9189 2.13567 5.79205 2.13567 7.74519V11.6745L0.558071 15.625C0.508659 15.7491 0.490365 15.8834 0.504784 16.0161C0.519203 16.1489 0.565898 16.2761 0.640792 16.3867C0.715687 16.4972 0.816505 16.5878 0.934447 16.6504C1.05239 16.7131 1.18387 16.7459 1.31741 16.746H6.22697C6.22697 18.5593 7.68674 20.0191 9.5 20.0191C11.3133 20.0191 12.773 18.5593 12.773 16.746H17.6826C17.8161 16.7459 17.9476 16.7131 18.0656 16.6504C18.1835 16.5878 18.2843 16.4972 18.3592 16.3867C18.4341 16.2761 18.4808 16.1489 18.4952 16.0161C18.5096 15.8834 18.4913 15.7491 18.4419 15.625L16.8643 11.6728V7.74519C16.8643 5.79205 16.0884 3.9189 14.7074 2.53782C13.3263 1.15674 11.4531 0.380859 9.5 0.380859ZM11.1365 16.746C11.1365 17.6559 10.4099 18.3825 9.5 18.3825C8.5901 18.3825 7.86348 17.6559 7.86348 16.746H11.1365ZM3.77219 7.74519C3.77219 6.22608 4.37565 4.76919 5.44983 3.69501C6.524 2.62084 7.98089 2.01738 9.5 2.01738C11.0191 2.01738 12.476 2.62084 13.5502 3.69501C14.6243 4.76919 15.2278 6.22608 15.2278 7.74519V11.8332C15.2281 11.9369 15.2481 12.0397 15.2867 12.136L16.4748 15.1095H2.52516L3.71328 12.136C3.75193 12.0397 3.77192 11.9369 3.77219 11.8332V7.74519Z" fill="white"/>
</svg>
