<svg width="19" height="21" viewBox="0 0 19 21" fill="none" xmlns="http://www.w3.org/2000/svg">
<path d="M9.5 12.24C14.468 12.24 18.5 14.3752 18.5 17V20.4H0.5V17C0.5 14.3752 4.532 12.24 9.5 12.24ZM17.3 17C17.3 15.1232 13.808 13.6 9.5 13.6C5.192 13.6 1.7 15.1232 1.7 17V19.04H17.3V17ZM9.5 0C10.6139 0 11.6822 0.501499 12.4698 1.39417C13.2575 2.28685 13.7 3.49757 13.7 4.76C13.7 6.02243 13.2575 7.23315 12.4698 8.12583C11.6822 9.0185 10.6139 9.52 9.5 9.52C8.38609 9.52 7.3178 9.0185 6.53015 8.12583C5.7425 7.23315 5.3 6.02243 5.3 4.76C5.3 3.49757 5.7425 2.28685 6.53015 1.39417C7.3178 0.501499 8.38609 0 9.5 0ZM9.5 1.36C8.70435 1.36 7.94129 1.71821 7.37868 2.35584C6.81607 2.99346 6.5 3.85826 6.5 4.76C6.5 5.66174 6.81607 6.52654 7.37868 7.16416C7.94129 7.80179 8.70435 8.16 9.5 8.16C10.2956 8.16 11.0587 7.80179 11.6213 7.16416C12.1839 6.52654 12.5 5.66174 12.5 4.76C12.5 3.85826 12.1839 2.99346 11.6213 2.35584C11.0587 1.71821 10.2956 1.36 9.5 1.36Z" fill="#00095A"/>
</svg>
