<svg width="18" height="21" viewBox="0 0 18 21" fill="none" xmlns="http://www.w3.org/2000/svg">
<path d="M9 12.24C13.968 12.24 18 14.3752 18 17V20.4H0V17C0 14.3752 4.032 12.24 9 12.24ZM16.8 17C16.8 15.1232 13.308 13.6 9 13.6C4.692 13.6 1.2 15.1232 1.2 17V19.04H16.8V17ZM9 0C10.1139 0 11.1822 0.501499 11.9698 1.39417C12.7575 2.28685 13.2 3.49757 13.2 4.76C13.2 6.02243 12.7575 7.23315 11.9698 8.12583C11.1822 9.0185 10.1139 9.52 9 9.52C7.88609 9.52 6.8178 9.0185 6.03015 8.12583C5.2425 7.23315 4.8 6.02243 4.8 4.76C4.8 3.49757 5.2425 2.28685 6.03015 1.39417C6.8178 0.501499 7.88609 0 9 0ZM9 1.36C8.20435 1.36 7.44129 1.71821 6.87868 2.35584C6.31607 2.99346 6 3.85826 6 4.76C6 5.66174 6.31607 6.52654 6.87868 7.16416C7.44129 7.80179 8.20435 8.16 9 8.16C9.79565 8.16 10.5587 7.80179 11.1213 7.16416C11.6839 6.52654 12 5.66174 12 4.76C12 3.85826 11.6839 2.99346 11.1213 2.35584C10.5587 1.71821 9.79565 1.36 9 1.36Z" fill="white"/>
</svg>
