<svg width="28" height="28" viewBox="0 0 28 28" fill="none" xmlns="http://www.w3.org/2000/svg">
<path d="M24.5158 14.708L26.3238 16.3179C26.6576 16.5965 26.8807 16.9855 26.9526 17.4143C27.0245 17.8432 26.9405 18.2836 26.7158 18.6559L24.5358 22.3797C24.3667 22.6648 24.1252 22.9001 23.8359 23.0617C23.5431 23.2237 23.2144 23.3096 22.8799 23.3117C22.6724 23.313 22.4659 23.2819 22.2679 23.2197L19.954 22.4557C19.5487 22.7157 19.1273 22.9484 18.69 23.1537L18.204 25.4996C18.1141 25.9312 17.8738 26.3167 17.5261 26.5876C17.1739 26.8633 16.7373 27.0088 16.2901 26.9996H11.7762C11.3291 27.0088 10.8925 26.8633 10.5403 26.5876C10.1933 26.3164 9.95372 25.9309 9.86431 25.4996L9.37633 23.1537C8.94474 22.9456 8.526 22.7119 8.12237 22.4537L5.80044 23.2197C5.60246 23.2819 5.39599 23.313 5.18846 23.3117C4.85459 23.3093 4.52663 23.2234 4.23449 23.0617C3.94538 22.9006 3.70392 22.6661 3.53451 22.3817L1.27659 18.6559C1.04185 18.2802 0.952158 17.8319 1.02432 17.3949C1.09648 16.9579 1.32554 16.5621 1.66857 16.2819L3.47452 14V13.292L1.66657 11.6821C1.33271 11.4035 1.10963 11.0145 1.03773 10.5857C0.965827 10.1568 1.04985 9.71641 1.27459 9.34415L3.53251 5.62027C3.70164 5.33521 3.94312 5.09993 4.23249 4.93829C4.52463 4.77663 4.85259 4.69069 5.18646 4.6883C5.39212 4.67532 5.59855 4.69421 5.79844 4.7443L8.07437 5.54427C8.48102 5.28428 8.90234 5.05162 9.33833 4.84629L9.82631 2.50037C9.91572 2.06912 10.1553 1.68359 10.5023 1.4124C10.8545 1.1367 11.2911 0.991162 11.7382 1.00042H16.2141C16.6613 0.991162 17.0979 1.1367 17.4501 1.4124C17.8001 1.68639 18.04 2.07238 18.126 2.50037L18.614 4.84629C19.0474 5.05295 19.4653 5.28628 19.868 5.54627L22.1919 4.78229C22.4498 4.69839 22.7224 4.66893 22.9923 4.69578C23.2621 4.72264 23.5235 4.80521 23.7599 4.93829C24.0499 5.10228 24.2898 5.33828 24.4598 5.61827L26.7158 9.34415C26.9537 9.71658 27.0479 10.1629 26.9809 10.5997C26.914 11.0365 26.6903 11.434 26.3518 11.7181L24.5158 13.282V14.708Z" stroke="#00095A" stroke-width="2"/>
<path d="M19 13.9998C19 15.3259 18.4732 16.5976 17.5356 17.5353C16.5979 18.4729 15.3262 18.9997 14.0002 18.9997C12.6741 18.9997 11.4024 18.4729 10.4648 17.5353C9.5271 16.5976 9.00034 15.3259 9.00034 13.9998C9.00034 12.6738 9.5271 11.4021 10.4648 10.4644C11.4024 9.52677 12.6741 9 14.0002 9C15.3262 9 16.5979 9.52677 17.5356 10.4644C18.4732 11.4021 19 12.6738 19 13.9998Z" stroke="#00095A" stroke-width="2"/>
</svg>
