<svg width="66" height="13" viewBox="0 0 66 13" fill="none" xmlns="http://www.w3.org/2000/svg">
<path d="M5.54545 0.363636H8.65909V8.34091C8.6553 9.09848 8.46402 9.76515 8.08523 10.3409C7.71023 10.9129 7.19129 11.3598 6.52841 11.6818C5.86932 12 5.10985 12.1591 4.25 12.1591C3.50379 12.1591 2.82197 12.0303 2.20455 11.7727C1.58712 11.5114 1.0947 11.1023 0.727273 10.5455C0.359848 9.98485 0.17803 9.25758 0.181818 8.36364H3.34091C3.35227 8.6553 3.40152 8.90152 3.48864 9.10227C3.57955 9.30303 3.70455 9.45455 3.86364 9.55682C4.02652 9.6553 4.22348 9.70455 4.45455 9.70455C4.68939 9.70455 4.88636 9.65341 5.04545 9.55114C5.20833 9.44886 5.33144 9.29735 5.41477 9.09659C5.49811 8.89205 5.54167 8.64015 5.54545 8.34091V0.363636ZM17.0426 0.363636H20.2017V7.81818C20.2017 8.70455 19.9896 9.47159 19.5653 10.1193C19.1449 10.7633 18.5578 11.2614 17.804 11.6136C17.0502 11.9621 16.1752 12.1364 15.179 12.1364C14.1752 12.1364 13.2964 11.9621 12.5426 11.6136C11.7888 11.2614 11.2017 10.7633 10.7812 10.1193C10.3646 9.47159 10.1562 8.70455 10.1562 7.81818V0.363636H13.3153V7.54545C13.3153 7.9053 13.3949 8.22727 13.554 8.51136C13.7131 8.79167 13.9328 9.01136 14.2131 9.17045C14.4972 9.32955 14.8191 9.40909 15.179 9.40909C15.5426 9.40909 15.8646 9.32955 16.1449 9.17045C16.4252 9.01136 16.6449 8.79167 16.804 8.51136C16.9631 8.22727 17.0426 7.9053 17.0426 7.54545V0.363636ZM21.7031 0.363636H25.6349L28.3395 6.95455H28.4759L31.1804 0.363636H35.1122V12H32.0213V5.27273H31.9304L29.3395 11.9091H27.4759L24.8849 5.22727H24.794V12H21.7031V0.363636ZM36.6094 12V0.363636H41.6321C42.4957 0.363636 43.2514 0.534091 43.8991 0.875C44.5469 1.21591 45.0507 1.69508 45.4105 2.3125C45.7704 2.92992 45.9503 3.65151 45.9503 4.47727C45.9503 5.31061 45.7647 6.0322 45.3935 6.64205C45.026 7.25189 44.509 7.72159 43.8423 8.05114C43.1795 8.38068 42.4048 8.54545 41.5185 8.54545H38.5185V6.09091H40.8821C41.2533 6.09091 41.5696 6.02652 41.831 5.89773C42.0961 5.76515 42.2988 5.57765 42.4389 5.33523C42.5829 5.0928 42.6548 4.80682 42.6548 4.47727C42.6548 4.14394 42.5829 3.85985 42.4389 3.625C42.2988 3.38636 42.0961 3.20455 41.831 3.07955C41.5696 2.95076 41.2533 2.88636 40.8821 2.88636H39.7685V12H36.6094ZM49.7457 0.363636V1.72727C49.7457 2.09848 49.67 2.4697 49.5185 2.84091C49.3707 3.20833 49.1813 3.55114 48.9503 3.86932C48.723 4.18371 48.4882 4.44697 48.2457 4.65909L46.9503 4C47.1094 3.72727 47.2514 3.41098 47.3764 3.05114C47.5014 2.69129 47.5639 2.25 47.5639 1.72727V0.363636H49.7457ZM54.3778 0.363636V12H51.2188V0.363636H54.3778ZM65.9432 0.363636V12H63.3068L59.1023 5.88636H59.0341V12H55.875V0.363636H58.5568L62.6932 6.45455H62.7841V0.363636H65.9432Z" fill="#00095A"/>
</svg>
